<svg width="16" height="16" viewBox="0 0 16 16" fill="none" xmlns="http://www.w3.org/2000/svg">
<g clip-path="url(#clip0_227_2112)">
<path d="M15 14H1.00001C0.447699 14 0 13.5523 0 13C0 12.4477 0.447699 12 1.00001 12H15C15.5523 12 16 12.4477 16 13C16 13.5523 15.5523 14 15 14Z" fill="black"/>
<path d="M15 9.00001H1.00001C0.447699 9.00001 0 8.55231 0 8.00004C0 7.44776 0.447699 7.00003 1.00001 7.00003H15C15.5523 7.00003 16 7.44773 16 8.00004C16 8.55235 15.5523 9.00001 15 9.00001Z" fill="black"/>
<path d="M15 4.00001H1.00001C0.447699 4.00001 0 3.55231 0 3.00001C0 2.4477 0.447699 2 1.00001 2H15C15.5523 2 16 2.4477 16 3.00001C16 3.55231 15.5523 4.00001 15 4.00001Z" fill="black"/>
</g>
<defs>
<clipPath id="clip0_227_2112">
<rect width="16" height="16" fill="white"/>
</clipPath>
</defs>
</svg>
