<svg width="24" height="24" viewBox="0 0 24 24" fill="none" xmlns="http://www.w3.org/2000/svg">
<g clip-path="url(#clip0_256_588)">
<path d="M13.5038 20.9967C7.70693 20.9967 3.0076 16.2974 3.0076 10.5005C3.0076 4.70359 7.70688 0.00436401 13.5038 0.00436401C19.3007 0.00436401 24 4.70364 24 10.5006C24 16.2975 19.3007 20.9967 13.5038 20.9967ZM13.5038 3.00329C9.36315 3.00329 6.00653 6.35991 6.00653 10.5006C6.00653 14.6412 9.36315 17.9978 13.5038 17.9978C17.6444 17.9978 21.0011 14.6412 21.0011 10.5006C21.0011 6.35991 17.6444 3.00329 13.5038 3.00329Z" fill="white"/>
<path d="M1.50812 23.9956C1.10955 23.9979 0.726476 23.8414 0.443515 23.5608C-0.144477 22.9776 -0.148353 22.0282 0.434832 21.4402C0.437726 21.4373 0.440621 21.4344 0.443515 21.4315L6.08145 15.7936C6.69012 15.2056 7.6602 15.2224 8.24819 15.8311C8.83618 16.4397 8.81938 17.4098 8.21072 17.9978L2.57273 23.5608C2.28977 23.8414 1.9067 23.9979 1.50812 23.9956V23.9956Z" fill="white"/>
</g>
<defs>
<clipPath id="clip0_256_588">
<rect width="24" height="24" fill="white"/>
</clipPath>
</defs>
</svg>
