<svg width="22" height="19" viewBox="0 0 22 19" fill="none" xmlns="http://www.w3.org/2000/svg">
<path d="M15.5455 17.3636V15.5454C15.5455 14.581 15.1623 13.6561 14.4804 12.9741C13.7984 12.2922 12.8735 11.9091 11.9091 11.9091H4.63636C3.67194 11.9091 2.74702 12.2922 2.06507 12.9741C1.38312 13.6561 1 14.581 1 15.5454V17.3636" stroke="#3626A7" stroke-width="2" stroke-linecap="round" stroke-linejoin="round"/>
<path d="M8.27272 8.27272C10.281 8.27272 11.9091 6.64466 11.9091 4.63636C11.9091 2.62805 10.281 0.999992 8.27272 0.999992C6.26441 0.999992 4.63635 2.62805 4.63635 4.63636C4.63635 6.64466 6.26441 8.27272 8.27272 8.27272Z" stroke="#3626A7" stroke-width="2" stroke-linecap="round" stroke-linejoin="round"/>
<path d="M21 17.3636V15.5455C20.9994 14.7397 20.7312 13.9571 20.2376 13.3203C19.744 12.6835 19.0529 12.2287 18.2727 12.0273" stroke="#3626A7" stroke-width="2" stroke-linecap="round" stroke-linejoin="round"/>
<path d="M14.6364 1.11817C15.4185 1.31844 16.1118 1.77335 16.6069 2.41118C17.102 3.049 17.3708 3.83347 17.3708 4.64089C17.3708 5.44832 17.102 6.23278 16.6069 6.87061C16.1118 7.50844 15.4185 7.96335 14.6364 8.16362" stroke="#3626A7" stroke-width="2" stroke-linecap="round" stroke-linejoin="round"/>
</svg>
