<svg width="27" height="24" viewBox="0 0 27 24" fill="none" xmlns="http://www.w3.org/2000/svg">
<path d="M23.1622 3.76815C22.6019 3.20759 21.9367 2.76292 21.2045 2.45954C20.4723 2.15615 19.6875 2 18.895 2C18.1024 2 17.3176 2.15615 16.5854 2.45954C15.8532 2.76292 15.188 3.20759 14.6277 3.76815L13.4649 4.93095L12.3021 3.76815C11.1703 2.6364 9.63536 2.00059 8.03482 2.00059C6.43429 2.00059 4.89931 2.6364 3.76756 3.76815C2.63581 4.89989 2 6.43487 2 8.03541C2 9.63594 2.63581 11.1709 3.76756 12.3027L4.93036 13.4655L13.4649 22L21.9994 13.4655L23.1622 12.3027C23.7228 11.7424 24.1674 11.0771 24.4708 10.3449C24.7742 9.61276 24.9304 8.82796 24.9304 8.03541C24.9304 7.24285 24.7742 6.45806 24.4708 5.72587C24.1674 4.99368 23.7228 4.32844 23.1622 3.76815Z" stroke="#3626A7" stroke-width="2.5" stroke-linecap="round" stroke-linejoin="round"/>
</svg>
