<svg width="22" height="22" viewBox="0 0 22 22" fill="none" xmlns="http://www.w3.org/2000/svg">
<path d="M11 9.9C10.7083 9.9 10.4285 10.0159 10.2222 10.2222C10.0159 10.4285 9.9 10.7083 9.9 11V15.4C9.9 15.6917 10.0159 15.9715 10.2222 16.1778C10.4285 16.3841 10.7083 16.5 11 16.5C11.2917 16.5 11.5715 16.3841 11.7778 16.1778C11.9841 15.9715 12.1 15.6917 12.1 15.4V11C12.1 10.7083 11.9841 10.4285 11.7778 10.2222C11.5715 10.0159 11.2917 9.9 11 9.9ZM11.418 5.588C11.1502 5.47798 10.8498 5.47798 10.582 5.588C10.447 5.64035 10.3236 5.71885 10.219 5.819C10.1218 5.92592 10.0437 6.04869 9.988 6.182C9.92642 6.31255 9.89628 6.4557 9.9 6.6C9.89917 6.74477 9.92691 6.88827 9.98165 7.02229C10.0364 7.15632 10.1171 7.27821 10.219 7.381C10.3259 7.47816 10.4487 7.55629 10.582 7.612C10.7486 7.68046 10.9296 7.70695 11.1088 7.68912C11.2881 7.6713 11.4603 7.60971 11.6102 7.50977C11.7601 7.40984 11.8832 7.27461 11.9686 7.11598C12.054 6.95734 12.0991 6.78016 12.1 6.6C12.096 6.30875 11.982 6.0298 11.781 5.819C11.6764 5.71885 11.553 5.64035 11.418 5.588ZM11 0C8.82441 0 6.69767 0.645139 4.88873 1.85383C3.07979 3.06253 1.66989 4.78049 0.83733 6.79048C0.00476612 8.80047 -0.21307 11.0122 0.211367 13.146C0.635804 15.2798 1.68345 17.2398 3.22183 18.7782C4.76021 20.3165 6.72022 21.3642 8.85401 21.7886C10.9878 22.2131 13.1995 21.9952 15.2095 21.1627C17.2195 20.3301 18.9375 18.9202 20.1462 17.1113C21.3549 15.3023 22 13.1756 22 11C22 9.55546 21.7155 8.12506 21.1627 6.79048C20.6099 5.4559 19.7996 4.24327 18.7782 3.22182C17.7567 2.20038 16.5441 1.39013 15.2095 0.837325C13.8749 0.284523 12.4445 0 11 0ZM11 19.8C9.25953 19.8 7.55814 19.2839 6.11098 18.3169C4.66383 17.35 3.53592 15.9756 2.86986 14.3676C2.20381 12.7596 2.02954 10.9902 2.36909 9.2832C2.70864 7.57617 3.54676 6.00816 4.77746 4.77746C6.00817 3.54676 7.57618 2.70864 9.28321 2.36909C10.9902 2.02954 12.7596 2.20381 14.3676 2.86986C15.9756 3.53591 17.35 4.66383 18.3169 6.11098C19.2839 7.55813 19.8 9.25952 19.8 11C19.8 13.3339 18.8729 15.5722 17.2225 17.2225C15.5722 18.8729 13.3339 19.8 11 19.8Z" fill="#3626A7"/>
</svg>
