<svg width="20" height="25" viewBox="0 0 20 25" fill="none" xmlns="http://www.w3.org/2000/svg">
<path d="M18.9998 10.8979C18.9998 17.8245 10.0941 23.7616 10.0941 23.7616C10.0941 23.7616 1.18848 17.8245 1.18848 10.8979C1.18848 8.53596 2.12675 6.27077 3.79688 4.60064C5.46702 2.9305 7.73221 1.99223 10.0941 1.99223C12.4561 1.99223 14.7213 2.9305 16.3914 4.60064C18.0615 6.27077 18.9998 8.53596 18.9998 10.8979Z" stroke="#3626A7" stroke-width="2" stroke-linecap="round" stroke-linejoin="round"/>
<path d="M10.0945 13.8664C11.734 13.8664 13.0631 12.5374 13.0631 10.8979C13.0631 9.2584 11.734 7.92933 10.0945 7.92933C8.45504 7.92933 7.12598 9.2584 7.12598 10.8979C7.12598 12.5374 8.45504 13.8664 10.0945 13.8664Z" stroke="#3626A7" stroke-width="2" stroke-linecap="round" stroke-linejoin="round"/>
</svg>
